<svg xmlns="http://www.w3.org/2000/svg" width="640" height="400" viewBox="0 0 640 400">
<rect width="640" height="400" fill="#F7F9F7"/>
<text x="20" y="380" font-family="Exo 2,sans-serif" font-size="18" fill="#496556">Folio Calm Sage</text>
<rect x="20" y="20" width="180" height="80" rx="16" fill="#6B8E7D" stroke="#3F4843" stroke-width="1"/><text x="32" y="68" font-family="Figtree,sans-serif" font-size="14" fill="#181C1A">Sage seed</text><text x="32" y="88" font-family="Figtree,sans-serif" font-size="12" fill="#181C1A">#6B8E7D</text><rect x="220" y="20" width="180" height="80" rx="16" fill="#496556" stroke="#3F4843" stroke-width="1"/><text x="232" y="68" font-family="Figtree,sans-serif" font-size="14" fill="#E0E3DF">Primary</text><text x="232" y="88" font-family="Figtree,sans-serif" font-size="12" fill="#E0E3DF">#496556</text><rect x="420" y="20" width="180" height="80" rx="16" fill="#98B4A4" stroke="#3F4843" stroke-width="1"/><text x="432" y="68" font-family="Figtree,sans-serif" font-size="14" fill="#181C1A">Sage light</text><text x="432" y="88" font-family="Figtree,sans-serif" font-size="12" fill="#181C1A">#98B4A4</text><rect x="20" y="140" width="180" height="80" rx="16" fill="#2F483D" stroke="#3F4843" stroke-width="1"/><text x="32" y="188" font-family="Figtree,sans-serif" font-size="14" fill="#E0E3DF">Container</text><text x="32" y="208" font-family="Figtree,sans-serif" font-size="12" fill="#E0E3DF">#2F483D</text><rect x="220" y="140" width="180" height="80" rx="16" fill="#D4B197" stroke="#3F4843" stroke-width="1"/><text x="232" y="188" font-family="Figtree,sans-serif" font-size="14" fill="#181C1A">Clay</text><text x="232" y="208" font-family="Figtree,sans-serif" font-size="12" fill="#181C1A">#D4B197</text><rect x="420" y="140" width="180" height="80" rx="16" fill="#A6B7C6" stroke="#3F4843" stroke-width="1"/><text x="432" y="188" font-family="Figtree,sans-serif" font-size="14" fill="#181C1A">Slate</text><text x="432" y="208" font-family="Figtree,sans-serif" font-size="12" fill="#181C1A">#A6B7C6</text><rect x="20" y="260" width="180" height="80" rx="16" fill="#F7F9F7" stroke="#3F4843" stroke-width="1"/><text x="32" y="308" font-family="Figtree,sans-serif" font-size="14" fill="#181C1A">Paper</text><text x="32" y="328" font-family="Figtree,sans-serif" font-size="12" fill="#181C1A">#F7F9F7</text><rect x="220" y="260" width="180" height="80" rx="16" fill="#181C1A" stroke="#3F4843" stroke-width="1"/><text x="232" y="308" font-family="Figtree,sans-serif" font-size="14" fill="#E0E3DF">Pine</text><text x="232" y="328" font-family="Figtree,sans-serif" font-size="12" fill="#E0E3DF">#181C1A</text><rect x="420" y="260" width="180" height="80" rx="16" fill="#E0E3DF" stroke="#3F4843" stroke-width="1"/><text x="432" y="308" font-family="Figtree,sans-serif" font-size="14" fill="#181C1A">Cream text</text><text x="432" y="328" font-family="Figtree,sans-serif" font-size="12" fill="#181C1A">#E0E3DF</text>
</svg>
